<svg version="1.1" id="Layer_1" xmlns="http://www.w3.org/2000/svg" xmlns:xlink="http://www.w3.org/1999/xlink" x="0px" y="0px"
	 width="100%" viewBox="0 0 545 458" enable-background="new 0 0 545 458" xml:space="preserve">
<path fill="#000000" opacity="1.000000" stroke="none" 
	d="
M546.000000,167.000000 
	C546.000000,264.666656 546.000000,361.833282 546.000000,458.999939 
	C364.333405,458.999969 182.666794,458.999969 1.000150,459.000000 
	C1.000100,306.333435 1.000100,153.666870 1.000050,1.000232 
	C182.666519,1.000154 364.333038,1.000154 545.999756,1.000077 
	C546.000000,56.166668 546.000000,111.333336 546.000000,167.000000 
M238.584991,376.183380 
	C214.473618,376.193451 190.362259,376.203522 165.385468,376.083618 
	C140.744293,373.371857 120.457558,354.020782 118.961815,326.938080 
	C118.974884,286.485107 119.006340,246.032150 118.994438,205.579193 
	C118.986755,179.444351 118.915558,153.309540 118.997047,126.465797 
	C118.980179,125.987251 118.963318,125.508705 119.031448,124.386932 
	C119.071136,123.956375 119.110832,123.525818 119.700348,122.556877 
	C121.512329,116.612091 123.066353,110.570175 125.251984,104.766098 
	C126.250198,102.115280 128.215942,99.656258 130.250687,97.616936 
	C132.277283,95.585770 134.904953,94.136528 137.330902,92.525253 
	C142.565170,89.048744 147.839096,85.631905 153.870697,82.055077 
	C157.577087,81.057114 161.283478,80.059151 165.925430,78.981110 
	C188.641312,78.980865 211.357254,79.000992 234.072952,78.938263 
	C235.730865,78.933685 237.387085,78.328690 239.638107,77.668518 
	C249.346191,61.076008 262.796997,47.723190 277.252228,34.370926 
	C271.704559,32.152290 266.355225,30.457008 260.875092,29.649845 
	C252.916718,28.477657 244.863953,27.946384 235.937592,27.046053 
	C212.158417,27.031290 188.379242,27.003597 164.600143,27.040625 
	C163.433014,27.042440 162.266754,27.609940 160.552246,28.564846 
	C146.889038,28.608950 134.364639,32.967682 122.311615,38.890938 
	C117.605164,41.203846 112.759865,43.535870 108.686096,46.755421 
	C103.978409,50.475960 99.777466,54.949284 95.851219,59.520660 
	C90.076057,66.244766 83.313705,72.660339 79.568634,80.454994 
	C74.656876,90.677902 72.118271,102.069595 68.883583,113.054192 
	C67.752060,116.896706 67.582413,121.022476 66.140686,125.319565 
	C66.081528,125.646698 65.970512,125.973846 65.970543,126.300972 
	C65.975975,194.605835 65.983528,262.910706 66.044144,331.215546 
	C66.045326,332.552704 66.672661,333.889374 67.275894,335.968109 
	C67.686546,338.709137 67.965202,341.477722 68.530930,344.186371 
	C70.852165,355.300171 74.613434,365.796265 80.254059,375.782745 
	C88.201279,389.852966 98.679611,401.478668 112.435471,409.627808 
	C121.404694,414.941284 131.401855,418.519592 141.504364,423.193085 
	C143.663589,423.847504 145.784531,424.841064 147.989532,425.089996 
	C153.631393,425.726807 159.310669,426.032257 165.911621,426.395813 
	C168.742538,426.328796 171.573944,426.187469 174.404282,426.206421 
	C199.226410,426.372589 224.048355,426.567352 249.789917,426.920105 
	C256.866547,425.936798 263.943207,424.953491 271.640015,423.790009 
	C272.833252,423.421204 274.100983,423.198944 275.198364,422.641449 
	C276.246887,422.108826 277.118103,421.227264 278.067291,420.499146 
	C277.376282,419.725555 276.770111,418.849274 275.979523,418.196289 
	C272.670776,415.463593 269.076416,413.034790 266.012573,410.056549 
	C260.232483,404.437988 254.372421,398.824982 249.263077,392.618958 
	C245.580093,388.145477 243.059326,382.715149 239.728317,377.366821 
	C239.505402,377.144653 239.237411,377.017334 238.584991,376.183380 
M405.036682,215.954300 
	C405.028503,227.034149 404.988342,238.114182 405.053864,249.193604 
	C405.061768,250.531647 405.640747,251.866302 406.518951,253.838516 
	C418.280792,254.231339 430.042664,254.624161 442.002808,255.933380 
	C442.007080,295.606659 442.011322,335.279938 441.233429,375.276642 
	C436.073364,375.424103 430.914124,375.651337 425.753113,375.703430 
	C412.429382,375.838013 399.102692,375.779602 385.781647,376.032410 
	C379.187378,376.157532 372.602905,376.798798 365.228455,377.086731 
	C364.170044,377.046997 363.111633,377.007294 361.575073,376.282043 
	C358.377228,376.516785 355.179352,376.751526 351.169220,377.051575 
	C349.814758,377.002625 348.460297,376.953674 346.742065,376.241058 
	C343.166779,376.221832 339.591522,376.202637 335.193024,376.038269 
	C331.771088,375.428040 328.349152,374.817810 324.310120,374.093872 
	C323.895142,374.132507 323.480194,374.171143 322.594147,374.043976 
	C322.594147,374.043976 322.099548,373.974823 321.913666,373.511261 
	C321.713165,373.163177 321.424622,373.059082 320.583893,373.054810 
	C320.583893,373.054810 320.102600,372.987030 319.801514,372.346619 
	C316.233063,370.127869 312.585083,368.025116 309.122742,365.651581 
	C306.622772,363.937744 304.369629,361.863892 301.995056,360.003387 
	C301.995056,360.003387 302.047638,359.991119 301.743042,359.363281 
	C298.146332,353.269745 293.678131,347.517456 291.131287,341.012848 
	C285.542908,326.740173 284.242126,311.721283 287.005005,296.606262 
	C289.143463,284.907227 292.414307,273.571350 299.546204,263.624695 
	C302.697021,259.230347 304.832520,254.107986 307.334167,249.372086 
	C307.334167,249.372086 307.419922,249.441101 308.013306,249.174759 
	C316.087006,242.629166 321.828857,233.370193 331.705078,228.817566 
	C328.593658,233.804367 324.771729,238.243546 321.707397,243.155365 
	C318.125671,248.896423 315.204742,255.049759 311.520081,261.152618 
	C311.211731,261.338257 311.046814,261.610718 310.369324,262.272339 
	C307.595306,269.183502 304.609131,276.019836 302.134766,283.036652 
	C300.856171,286.662537 302.929626,288.528778 306.624908,287.707977 
	C307.568726,287.498322 308.481476,286.951782 309.416840,286.930664 
	C324.261536,286.595520 337.532532,281.575500 349.308594,272.842834 
	C354.735168,268.818665 360.148712,264.354736 364.245819,259.065826 
	C369.492889,252.292526 373.690430,244.641693 377.826202,237.087570 
	C383.608459,226.526077 386.489502,214.979355 388.777496,202.645798 
	C389.184235,193.881790 389.647217,185.119659 389.942535,176.351898 
	C389.991882,174.886093 389.312988,173.395752 388.559540,171.197388 
	C386.416901,171.195602 384.195312,170.820190 382.144714,171.253784 
	C370.452332,173.725891 358.750946,176.193115 347.164764,179.107651 
	C343.569183,180.012131 340.323730,182.308411 336.985229,183.980499 
	C336.985229,183.980499 336.972534,183.913208 336.217896,183.993057 
	C331.533569,186.113266 326.602051,187.826645 322.239960,190.477173 
	C318.473633,192.765671 315.355011,196.119995 311.477386,199.128754 
	C311.173279,199.316574 311.015625,199.589127 310.294830,200.059845 
	C305.173645,204.926010 299.719574,209.498840 295.067505,214.778381 
	C292.632080,217.542282 291.604675,221.546860 290.002869,224.975113 
	C290.002869,224.975113 289.966919,224.922729 289.309570,225.234467 
	C283.934601,234.875565 280.168488,245.053299 278.276611,255.879150 
	C277.838043,255.079193 277.229584,254.327118 276.988434,253.471527 
	C275.385864,247.785309 274.339050,241.892319 272.218750,236.411972 
	C266.862732,222.568146 259.617981,209.760910 247.377869,200.810043 
	C239.118484,194.770142 230.686783,188.545212 221.439178,184.390900 
	C211.397476,179.879837 200.410522,177.319031 189.661438,174.595779 
	C183.476669,173.028870 176.949936,172.797424 170.570297,172.021042 
	C168.048004,171.714111 166.904068,172.873505 167.031448,175.475967 
	C167.443436,183.892715 167.024765,192.430099 168.310623,200.705872 
	C170.380508,214.027573 172.336365,227.254791 179.263809,239.606598 
	C183.987900,248.029770 188.277069,256.677338 195.001740,263.469482 
	C200.201599,268.721466 206.572815,273.061310 213.029800,276.742859 
	C218.204056,279.693054 224.289612,281.044952 230.492996,283.593536 
	C234.844360,284.700409 239.143753,286.170197 243.563004,286.802948 
	C247.311020,287.339600 251.197495,286.909149 255.639114,286.621246 
	C255.400146,285.425781 255.161163,284.230316 254.938950,282.265442 
	C254.909439,281.498016 254.879929,280.730591 254.637589,279.318085 
	C244.665192,260.778137 236.499542,241.115646 220.620422,225.924271 
	C221.774872,225.520035 222.216370,225.239609 222.652756,225.247330 
	C223.108673,225.255371 223.692642,225.412216 223.993546,225.723526 
	C233.002167,235.043808 242.385117,244.045715 250.816284,253.864380 
	C255.863998,259.742798 259.985321,266.619110 263.482605,273.570343 
	C267.094727,280.749847 269.446655,288.563416 272.215515,296.910126 
	C272.863800,304.942749 273.512085,312.975342 274.018494,321.384369 
	C274.018494,321.384369 273.963043,321.782837 273.227905,321.897980 
	C270.571442,324.201385 266.768799,323.305786 266.108887,319.952393 
	C265.151611,315.087982 264.956635,310.060394 263.811493,305.251190 
	C263.136749,302.417450 263.480499,298.144501 258.788818,298.032593 
	C252.653091,297.886139 246.505371,297.858582 240.377228,298.119263 
	C239.226974,298.168213 237.212997,299.770935 237.173065,300.722778 
	C236.711884,311.712860 236.281769,322.720032 236.457077,333.712891 
	C236.522598,337.821777 238.187561,341.905121 239.070816,346.786438 
	C241.512146,353.843811 243.512619,361.093109 246.484940,367.919250 
	C253.030167,382.950867 263.443207,395.173798 276.523682,404.806824 
	C284.216461,410.472137 292.676361,415.254944 301.239502,419.538605 
	C311.742554,424.792786 322.946167,427.998383 335.846313,426.850006 
	C337.914490,426.801270 339.982635,426.752502 342.965485,426.864655 
	C347.959595,426.822876 352.953735,426.781097 358.474915,426.892639 
	C358.655060,426.924530 358.835236,426.956451 359.142303,427.430450 
	C359.422180,427.282806 359.702087,427.135193 360.513153,426.889008 
	C360.685608,426.837219 360.858093,426.785461 361.667633,426.876648 
	C362.097534,426.828369 362.527435,426.780090 363.723053,426.867065 
	C364.496246,426.820282 365.269409,426.773499 366.940308,426.881622 
	C370.273682,426.825867 373.607025,426.770111 377.709900,426.850342 
	C378.487183,426.806641 379.264465,426.762909 380.961182,426.881134 
	C387.293610,426.832214 393.626007,426.783295 400.716583,426.860626 
	C401.481079,426.817566 402.245544,426.774506 403.492157,426.835052 
	C403.492157,426.835052 403.965179,426.695709 404.841705,426.824341 
	C406.904419,426.790253 408.967163,426.756165 411.753448,426.857880 
	C412.483429,426.804260 413.213440,426.750671 414.646545,426.794342 
	C415.116638,426.755707 415.586761,426.717041 416.971222,426.858093 
	C423.664886,426.816345 430.358521,426.774567 437.869690,426.868958 
	C439.251526,426.893219 440.633362,426.917480 442.494537,427.652893 
	C449.029022,427.416687 455.563477,427.180511 462.739563,426.925812 
	C463.163239,426.869812 463.586884,426.813782 464.935089,426.922607 
	C474.483185,426.922607 484.031311,426.922607 493.838776,426.922607 
	C493.838776,418.780151 493.838776,411.374969 493.959473,403.042358 
	C493.919434,374.708923 493.879395,346.375488 493.942596,317.508331 
	C493.908630,317.330322 493.874695,317.152344 493.966003,316.046387 
	C493.922607,281.042328 493.879211,246.038284 493.935699,210.508408 
	C493.897247,210.334213 493.858765,210.160004 493.935669,209.333496 
	C493.901764,208.894943 493.867859,208.456406 493.978760,207.255310 
	C493.796051,203.184433 490.299957,203.192642 487.910828,203.213608 
	C471.940460,203.353790 455.973114,203.836472 439.385101,204.077515 
	C438.964874,204.038147 438.544647,203.998779 437.691101,203.285049 
	C434.771759,203.518661 431.846130,204.006546 428.934387,203.934357 
	C422.337219,203.770859 415.747009,203.146790 409.153687,203.142914 
	C407.638031,203.142029 405.003876,204.710266 404.823334,205.860687 
	C404.358002,208.825562 404.978027,211.960800 405.036682,215.954300 
M244.978745,184.036148 
	C244.978745,184.036148 244.892563,184.078568 245.137604,184.716095 
	C248.797455,187.717865 252.613998,190.550873 256.076416,193.765320 
	C260.146515,197.543945 264.358582,201.313385 267.687469,205.709000 
	C271.531311,210.784592 274.479065,216.538788 277.835388,222.030228 
	C284.765900,216.518127 289.022766,208.169205 289.024261,200.134033 
	C289.028595,176.809738 288.881287,153.484818 289.032684,130.161697 
	C289.059937,125.964828 289.931793,121.704544 290.922974,117.596420 
	C293.382385,107.403038 299.627838,99.576675 307.072083,92.495735 
	C314.888855,85.060425 324.614960,81.371513 334.827301,80.220047 
	C346.820770,78.867775 359.015961,79.201591 371.126770,79.047348 
	C375.563507,78.990837 380.011749,79.923386 384.450012,79.883316 
	C391.057831,79.823669 397.661957,79.035576 404.266785,79.048019 
	C411.373199,79.061401 418.476837,79.875206 425.584747,79.927711 
	C443.911377,80.063087 462.239777,80.008537 480.567291,79.957466 
	C494.279968,79.919258 494.541046,79.592354 493.940094,65.045990 
	C493.912476,54.368999 493.884857,43.692009 493.987946,32.238956 
	C492.678650,30.828669 491.529541,28.431793 490.030792,28.188450 
	C485.034576,27.377216 479.909515,27.011513 474.839996,27.064489 
	C459.543549,27.224333 444.251038,27.746511 428.954651,27.936642 
	C424.692291,27.989622 420.424866,27.184002 416.154266,27.115604 
	C406.435364,26.959951 396.711365,26.896580 386.992798,27.034159 
	C381.359528,27.113903 375.732941,27.914583 370.103119,27.917259 
	C364.502075,27.919922 358.900818,27.073156 353.299591,27.072201 
	C347.698120,27.071247 342.073090,27.437418 336.500732,28.036684 
	C328.526947,28.894205 320.267792,29.058069 312.705994,31.386906 
	C295.862000,36.574432 280.538818,44.845917 267.881897,57.527206 
	C258.181549,67.246239 249.776199,77.842209 245.484558,91.058258 
	C242.319458,100.805244 238.619415,110.608154 237.302612,120.666946 
	C235.697235,132.929977 236.244339,145.485733 236.061234,157.917847 
	C235.999710,162.094894 237.184357,166.356308 236.696426,170.447617 
	C235.611038,179.548599 236.206253,180.995163 244.978745,184.036148 
M309.287994,299.056549 
	C307.292603,299.127411 305.088470,298.695435 303.361359,299.412476 
	C301.680237,300.110474 299.597290,301.779816 299.229309,303.377106 
	C297.295441,311.770813 297.249084,320.226196 298.898682,328.778320 
	C300.776855,338.515442 303.646454,347.789032 311.789551,353.990692 
	C316.686066,357.719788 322.434814,360.416779 328.016449,363.134094 
	C333.241760,365.677917 335.206604,361.498566 336.487610,357.777557 
	C338.251068,352.655212 339.869476,347.377808 340.618256,342.036224 
	C341.713745,334.221252 342.242676,326.299896 342.528809,318.406281 
	C342.798096,310.978119 342.041290,303.502838 342.494202,296.094635 
	C342.809906,290.930328 341.604797,289.160919 336.508270,290.666260 
	C332.875366,291.739319 329.498688,293.666748 325.877686,294.796295 
	C320.707123,296.409149 315.417694,297.640900 309.287994,299.056549 
M319.509125,95.832008 
	C306.987701,103.052467 301.406830,114.539658 298.824127,128.959793 
	C312.000763,128.959793 324.465546,128.984726 336.930176,128.948898 
	C342.827728,128.931946 343.979584,127.516739 342.698761,121.684258 
	C340.891815,113.456062 338.805084,105.287018 337.125854,97.034096 
	C336.377899,93.358261 334.274750,91.618927 330.914459,92.190285 
	C327.237091,92.815544 323.699799,94.264717 319.509125,95.832008 
z"/>
<path fill="#4B4B49" opacity="1.000000" stroke="none" 
	d="
M240.020172,377.711609 
	C243.059326,382.715149 245.580093,388.145477 249.263077,392.618958 
	C254.372421,398.824982 260.232483,404.437988 266.012573,410.056549 
	C269.076416,413.034790 272.670776,415.463593 275.979523,418.196289 
	C276.770111,418.849274 277.376282,419.725555 278.067291,420.499146 
	C277.118103,421.227264 276.246887,422.108826 275.198364,422.641449 
	C274.100983,423.198944 272.833252,423.421204 271.191772,423.567078 
	C269.578430,423.143250 268.376068,422.649170 267.254578,422.791626 
	C262.046051,423.453308 256.848846,424.226868 251.675568,425.122223 
	C250.676315,425.295135 249.802200,426.191162 248.870361,426.753662 
	C224.048355,426.567352 199.226410,426.372589 174.404282,426.206421 
	C171.573944,426.187469 168.742538,426.328796 165.181946,426.107025 
	C157.377701,424.425812 150.310928,422.990051 143.215775,421.711884 
	C142.548218,421.591644 141.701874,422.463806 140.938538,422.875214 
	C131.401855,418.519592 121.404694,414.941284 112.435471,409.627808 
	C98.679611,401.478668 88.201279,389.852966 80.254059,375.782745 
	C74.613434,365.796265 70.852165,355.300171 68.530930,344.186371 
	C67.965202,341.477722 67.686546,338.709137 67.218430,335.118713 
	C67.096054,331.609375 66.974770,328.949432 66.974449,326.289459 
	C66.966408,259.199280 66.971085,192.109085 66.973518,125.018890 
	C67.582413,121.022476 67.752060,116.896706 68.883583,113.054192 
	C72.118271,102.069595 74.656876,90.677902 79.568634,80.454994 
	C83.313705,72.660339 90.076057,66.244766 95.851219,59.520660 
	C99.777466,54.949284 103.978409,50.475960 108.686096,46.755421 
	C112.759865,43.535870 117.605164,41.203846 122.311615,38.890938 
	C134.364639,32.967682 146.889038,28.608950 161.286957,28.275871 
	C185.051666,27.990726 208.081726,28.014830 231.111588,27.961233 
	C233.025497,27.956781 234.938187,27.427319 236.851440,27.141783 
	C244.863953,27.946384 252.916718,28.477657 260.875092,29.649845 
	C266.355225,30.457008 271.704559,32.152290 277.252228,34.370926 
	C262.796997,47.723190 249.346191,61.076008 238.869476,77.847298 
	C223.708710,77.987656 209.316589,77.949234 194.585907,77.689270 
	C189.186325,77.309792 184.122513,76.971428 179.065079,77.048767 
	C174.710251,77.115364 170.362656,77.655876 165.822449,78.024834 
	C165.633026,78.062805 165.246658,78.057945 164.818710,78.042702 
	C162.602539,78.070740 160.807098,78.235870 159.027710,78.130280 
	C155.940170,77.947075 153.583130,78.655670 153.096786,82.190659 
	C147.839096,85.631905 142.565170,89.048744 137.330902,92.525253 
	C134.904953,94.136528 132.277283,95.585770 130.250687,97.616936 
	C128.215942,99.656258 126.250198,102.115280 125.251984,104.766098 
	C123.066353,110.570175 121.512329,116.612091 119.141945,122.716064 
	C117.689270,123.747528 116.025352,124.611908 116.016327,125.493240 
	C115.883896,138.428116 115.910416,151.366074 116.087402,164.300735 
	C116.108894,165.872009 117.223007,167.428329 117.907013,169.455261 
	C117.932724,177.948349 117.882164,185.977753 117.487427,194.176483 
	C116.762718,196.057312 116.054138,197.768097 116.050369,199.480423 
	C115.982895,230.103470 115.980446,260.726776 116.049339,291.349792 
	C116.053619,293.252777 116.762329,295.154144 117.098244,297.519409 
	C117.079048,305.303375 117.104912,312.624207 116.879768,320.257202 
	C116.628769,323.591461 116.628769,326.613525 116.628769,329.635590 
	C116.983620,329.639587 117.338463,329.643555 117.693314,329.647522 
	C117.816612,329.048828 117.939911,328.450134 118.271027,327.897156 
	C118.478851,327.942841 118.895302,327.855225 118.895302,327.855225 
	C120.457558,354.020782 140.744293,373.371857 166.006439,376.299500 
	C167.082733,376.670990 167.538071,376.826630 168.322601,377.235809 
	C170.620667,377.660339 172.589233,377.975647 174.558472,377.979889 
	C193.653870,378.021027 212.749390,378.022064 231.844833,378.000427 
	C234.570053,377.997314 237.295059,377.812378 240.020172,377.711609 
z"/>
<path fill="#6BB24C" opacity="1.000000" stroke="none" 
	d="
M438.124420,203.959412 
	C438.544647,203.998779 438.964874,204.038147 440.056152,204.340912 
	C454.025543,204.732819 467.323761,204.884323 480.622375,204.982697 
	C491.694641,205.064606 491.014496,204.134918 491.013824,215.146027 
	C491.010345,272.898560 490.992920,330.651123 491.096130,388.403473 
	C491.100098,390.627747 492.289032,392.849915 492.934509,395.489655 
	C492.938873,397.578857 492.934509,399.251495 492.709900,401.265564 
	C492.161285,406.859528 491.580139,412.111694 491.571808,417.364746 
	C491.562469,423.237061 490.661530,424.536316 484.727356,425.044189 
	C477.823456,425.635071 470.916290,426.188232 464.010559,426.757751 
	C463.586884,426.813782 463.163239,426.869812 462.272522,426.653290 
	C455.208710,426.567749 448.611938,426.754730 442.015198,426.941742 
	C440.633362,426.917480 439.251526,426.893219 437.306091,426.493896 
	C429.847290,426.305359 422.952087,426.491852 416.056854,426.678375 
	C415.586761,426.717041 415.116638,426.755707 414.074371,426.595612 
	C412.678101,426.505280 411.853973,426.613678 411.029877,426.722076 
	C408.967163,426.756165 406.904419,426.790253 404.293427,426.678070 
	C403.462036,426.437836 403.216980,426.504364 403.010040,426.731445 
	C402.245544,426.774506 401.481079,426.817566 399.974670,426.612122 
	C392.835754,426.482147 386.438751,426.600677 380.041748,426.719177 
	C379.264465,426.762909 378.487183,426.806641 376.975891,426.605286 
	C372.842133,426.482391 369.442352,426.604553 366.042603,426.726715 
	C365.269409,426.773499 364.496246,426.820282 363.167542,426.665710 
	C362.084900,426.554138 361.557709,426.643921 361.030548,426.733673 
	C360.858093,426.785461 360.685608,426.837219 360.005890,426.936279 
	C359.498627,426.983521 359.015381,426.988342 359.015381,426.988342 
	C358.835236,426.956451 358.655060,426.924530 357.851257,426.631256 
	C352.168671,426.481171 347.109741,426.592468 342.050812,426.703735 
	C339.982635,426.752502 337.914490,426.801270 335.118225,426.567383 
	C332.809204,425.846497 331.254059,425.226227 329.643372,424.998413 
	C315.040283,422.932800 301.373413,418.182770 288.819763,410.467560 
	C280.197876,405.168701 272.701721,398.499664 265.584320,391.257812 
	C255.589355,381.088043 248.851791,369.124237 243.967621,355.923859 
	C242.733871,352.589417 241.397171,349.293060 240.090912,345.522705 
	C239.715424,334.695099 239.193863,324.326416 239.036774,313.952240 
	C238.807144,298.784973 237.861557,299.956757 252.980927,300.006134 
	C258.763458,300.024994 260.034485,301.376526 261.058624,307.138397 
	C261.898865,311.865509 262.699799,316.706818 264.480774,321.107971 
	C265.216187,322.925262 268.358032,324.072418 270.636597,324.784729 
	C271.361755,325.011414 272.833130,322.850952 273.963043,321.782837 
	C273.963043,321.782837 274.018494,321.384369 274.433350,321.025543 
	C275.233521,318.802094 275.889954,316.947510 275.959534,315.071167 
	C276.373505,303.910126 276.681946,292.744812 276.959167,281.579285 
	C277.054749,277.729614 276.959167,273.875183 276.950684,269.672211 
	C277.005798,268.857452 277.061157,268.393433 277.447815,267.807190 
	C278.162659,266.997009 278.723145,266.352112 278.902557,265.614563 
	C280.878632,257.490967 282.638702,249.311356 284.782776,241.233322 
	C286.244598,235.725784 288.220764,230.354782 289.966919,224.922729 
	C289.966919,224.922729 290.002869,224.975113 290.298615,224.890213 
	C294.574371,219.851379 298.522064,214.870987 302.545593,209.952652 
	C305.310669,206.572617 308.181122,203.278763 311.004456,199.946381 
	C311.015625,199.589127 311.173279,199.316574 312.017487,199.180801 
	C313.998230,198.730072 315.542603,198.414780 316.858704,197.686859 
	C319.925446,195.990692 322.984833,194.243317 325.858429,192.245270 
	C329.657532,189.603653 333.276276,186.702698 336.972534,183.913208 
	C336.972534,183.913208 336.985229,183.980499 337.370789,183.980301 
	C341.123657,183.147598 344.483643,182.284180 347.859558,181.488342 
	C358.486786,178.983078 369.057800,176.175934 379.774750,174.139008 
	C385.975677,172.960419 386.874786,174.359512 387.061371,180.745224 
	C387.210358,185.842300 387.658417,190.930664 387.952942,196.401917 
	C387.555939,198.494720 387.179657,200.208496 386.481628,202.091080 
	C385.448639,205.103577 384.829895,207.974304 384.008392,210.785812 
	C381.695038,218.703033 380.173401,227.009720 376.687378,234.381531 
	C373.226562,241.700012 367.525360,247.925262 363.215546,254.883209 
	C354.919342,268.276947 342.569305,276.019226 327.925507,280.355713 
	C321.692261,282.201569 315.127197,283.024384 308.660675,283.944916 
	C305.327606,284.419403 303.657867,283.188660 305.210541,279.243561 
	C307.432678,273.597412 309.113403,267.738190 311.025299,261.969971 
	C311.046814,261.610718 311.211731,261.338257 312.119324,261.044067 
	C313.438812,260.354523 314.466675,259.923218 314.832947,259.170105 
	C319.989532,248.567551 327.293762,239.520309 334.709595,230.456146 
	C337.431427,227.129349 342.288727,224.451035 341.351990,217.916107 
	C337.201324,220.069901 332.966766,221.389236 329.891785,224.049118 
	C323.848389,229.276672 318.209869,235.036636 312.900940,241.017578 
	C310.745422,243.445938 305.844635,244.482895 307.419922,249.441101 
	C307.419922,249.441101 307.334167,249.372086 307.008484,249.344299 
	C301.304413,250.916550 300.059937,255.924576 297.960480,260.123016 
	C293.919342,268.204285 289.033386,276.066498 286.409912,284.606934 
	C282.186676,298.355286 283.168823,312.706818 284.995667,326.851196 
	C285.580780,331.381134 286.326538,336.111328 288.195435,340.203400 
	C291.088928,346.538818 294.927856,352.455292 298.583679,358.415863 
	C299.133301,359.312012 300.863525,359.484100 302.047638,359.991119 
	C302.047638,359.991119 301.995056,360.003387 302.064941,360.317566 
	C306.555054,367.031860 312.021698,371.910370 320.102600,372.987030 
	C320.102600,372.987030 320.583893,373.054810 320.972015,373.280579 
	C321.593933,373.682495 321.840393,373.838654 322.099548,373.974823 
	C322.099548,373.974823 322.594147,374.043976 322.997864,374.257477 
	C323.910156,374.383179 324.418671,374.295380 324.927216,374.207611 
	C328.349152,374.817810 331.771088,375.428040 335.914368,376.314545 
	C340.125763,376.695435 343.615784,376.800079 347.105835,376.904724 
	C348.460297,376.953674 349.814758,377.002625 351.897949,377.255371 
	C355.768860,377.295288 358.911041,377.131409 362.053223,376.967590 
	C363.111633,377.007294 364.170044,377.046997 365.981018,377.344299 
	C390.773743,377.716278 414.814056,377.879364 438.853729,377.813965 
	C440.176514,377.810364 441.494110,375.907501 442.871185,374.566589 
	C443.004059,373.814758 443.079865,373.385010 443.362030,372.612518 
	C443.705566,368.848145 443.842773,365.426514 443.985107,361.560608 
	C444.000397,358.746552 444.010620,356.376770 444.393646,353.911163 
	C445.510010,351.974091 446.858551,350.145203 446.896515,348.289490 
	C447.105988,338.054932 446.995026,327.813843 446.994934,317.574982 
	C446.994751,299.134949 447.049622,280.694489 446.908051,262.255554 
	C446.894562,260.495117 445.656464,258.744110 444.902222,256.686768 
	C444.166290,255.947678 443.514954,255.510605 442.900696,255.073685 
	C442.937805,255.073837 442.911194,255.143097 442.940063,254.783478 
	C442.977173,253.943588 442.985443,253.463333 442.856445,252.791321 
	C442.511261,252.358932 442.269348,252.159576 441.525879,252.002243 
	C435.373993,251.993729 429.689636,251.984482 423.937561,251.724396 
	C423.242615,251.636475 422.615387,251.799393 421.616547,251.964447 
	C420.501770,251.959961 419.758636,251.953369 418.953217,251.697632 
	C418.260254,251.299881 417.629547,251.151291 416.557373,251.004196 
	C413.039490,250.668823 409.963104,250.331955 406.902588,249.528564 
	C406.614349,237.709274 406.310211,226.356461 406.016052,214.592163 
	C407.312286,205.001419 407.312286,205.002731 416.568298,205.010025 
	C420.035126,205.012756 423.508698,205.143036 426.966919,204.969666 
	C430.693604,204.782852 434.405853,204.308395 438.124420,203.959412 
z"/>
<path fill="#4B4C49" opacity="1.000000" stroke="none" 
	d="
M277.116486,267.929413 
	C277.061157,268.393433 277.005798,268.857452 276.754944,270.005951 
	C276.037292,274.955109 275.655212,279.243042 274.953613,283.477966 
	C274.251984,287.712738 273.230865,291.894562 272.349854,296.099609 
	C269.446655,288.563416 267.094727,280.749847 263.482605,273.570343 
	C259.985321,266.619110 255.863998,259.742798 250.816284,253.864380 
	C242.385117,244.045715 233.002167,235.043808 223.993546,225.723526 
	C223.692642,225.412216 223.108673,225.255371 222.652756,225.247330 
	C222.216370,225.239609 221.774872,225.520035 220.620422,225.924271 
	C236.499542,241.115646 244.665192,260.778137 254.465607,279.747192 
	C254.503143,281.129150 254.712662,282.082001 254.922195,283.034851 
	C255.161163,284.230316 255.400146,285.425781 255.239777,286.487427 
	C249.526978,285.537292 244.222122,284.657928 238.896637,283.929443 
	C235.939148,283.524933 232.947174,283.372284 229.970749,283.106140 
	C224.289612,281.044952 218.204056,279.693054 213.029800,276.742859 
	C206.572815,273.061310 200.201599,268.721466 195.001740,263.469482 
	C188.277069,256.677338 183.987900,248.029770 179.263809,239.606598 
	C172.336365,227.254791 170.380508,214.027573 168.310623,200.705872 
	C167.024765,192.430099 167.443436,183.892715 167.031448,175.475967 
	C166.904068,172.873505 168.048004,171.714111 170.570297,172.021042 
	C176.949936,172.797424 183.476669,173.028870 189.661438,174.595779 
	C200.410522,177.319031 211.397476,179.879837 221.439178,184.390900 
	C230.686783,188.545212 239.118484,194.770142 247.377869,200.810043 
	C259.617981,209.760910 266.862732,222.568146 272.218750,236.411972 
	C274.339050,241.892319 275.385864,247.785309 276.988434,253.471527 
	C277.229584,254.327118 277.838043,255.079193 278.547546,256.356628 
	C278.251129,260.532562 277.683807,264.230988 277.116486,267.929413 
z"/>
<path fill="#4A4A49" opacity="1.000000" stroke="none" 
	d="
M309.733521,299.046021 
	C315.417694,297.640900 320.707123,296.409149 325.877686,294.796295 
	C329.498688,293.666748 332.875366,291.739319 336.508270,290.666260 
	C341.604797,289.160919 342.809906,290.930328 342.494202,296.094635 
	C342.041290,303.502838 342.798096,310.978119 342.528809,318.406281 
	C342.242676,326.299896 341.713745,334.221252 340.618256,342.036224 
	C339.869476,347.377808 338.251068,352.655212 336.487610,357.777557 
	C335.206604,361.498566 333.241760,365.677917 328.016449,363.134094 
	C322.434814,360.416779 316.686066,357.719788 311.789551,353.990692 
	C303.646454,347.789032 300.776855,338.515442 298.898682,328.778320 
	C297.249084,320.226196 297.295441,311.770813 299.229309,303.377106 
	C299.597290,301.779816 301.680237,300.110474 303.361359,299.412476 
	C305.088470,298.695435 307.292603,299.127411 309.733521,299.046021 
z"/>
<path fill="#75A35E" opacity="1.000000" stroke="none" 
	d="
M493.783356,65.968849 
	C494.541046,79.592354 494.279968,79.919258 480.567291,79.957466 
	C462.239777,80.008537 443.911377,80.063087 425.584747,79.927711 
	C418.476837,79.875206 411.373199,79.061401 404.266785,79.048019 
	C397.661957,79.035576 391.057831,79.823669 384.450012,79.883316 
	C380.011749,79.923386 375.563507,78.990837 371.126770,79.047348 
	C359.015961,79.201591 346.820770,78.867775 334.827301,80.220047 
	C324.614960,81.371513 314.888855,85.060425 307.072083,92.495735 
	C299.627838,99.576675 293.382385,107.403038 290.922974,117.596420 
	C289.931793,121.704544 289.059937,125.964828 289.032684,130.161697 
	C288.881287,153.484818 289.028595,176.809738 289.024261,200.134033 
	C289.022766,208.169205 284.765900,216.518127 277.835388,222.030228 
	C274.479065,216.538788 271.531311,210.784592 267.687469,205.709000 
	C264.358582,201.313385 260.146515,197.543945 256.076416,193.765320 
	C252.613998,190.550873 248.797455,187.717865 245.395325,184.388290 
	C254.029495,185.650009 258.548187,192.455505 263.818878,197.985794 
	C269.020508,203.443619 273.443085,209.643921 278.504395,215.884659 
	C281.880768,212.143723 285.048615,208.686874 285.012482,203.395721 
	C284.968079,196.897247 284.576843,190.361725 285.124756,183.909241 
	C285.724884,176.842712 285.826385,169.877075 285.121857,162.817688 
	C284.781525,159.407684 285.662537,155.888672 285.824738,152.411270 
	C285.940643,149.926331 286.096619,147.375885 285.691711,144.945129 
	C283.335907,130.802246 286.043915,117.473534 293.032776,105.255104 
	C303.787811,86.452332 320.298676,76.988220 342.104492,76.997047 
	C387.929291,77.015587 433.754089,77.012878 479.578827,76.957771 
	C482.212830,76.954605 484.990753,76.814201 487.425629,75.955139 
	C488.888123,75.439148 490.800659,73.424988 490.828674,72.049881 
	C491.083008,59.557980 491.092072,47.055557 490.796814,34.565094 
	C490.760590,33.033047 488.788208,30.757532 487.233643,30.224262 
	C484.478973,29.279297 481.358673,29.159245 478.387024,29.129583 
	C465.609894,29.002039 452.831146,29.019026 440.053009,29.009382 
	C420.109314,28.994329 400.165222,28.933855 380.222137,29.041945 
	C374.917389,29.070694 369.618530,29.845476 364.311737,29.924431 
	C353.875610,30.079700 343.409882,29.525463 333.003876,30.110142 
	C318.905640,30.902277 305.687805,35.479588 293.399353,42.223206 
	C286.935883,45.770210 280.771759,50.154999 275.241150,55.032990 
	C268.835236,60.683002 261.951813,66.499016 257.659027,73.669746 
	C251.405685,84.115387 246.119400,95.477806 242.542252,107.102180 
	C238.073380,121.624268 238.464844,136.994919 239.064117,152.168350 
	C239.140076,154.091415 238.708313,156.029495 238.604843,157.965591 
	C238.161560,166.261536 235.977722,174.932556 243.760742,181.467178 
	C244.426392,182.026077 244.556961,183.222290 244.936096,184.122437 
	C236.206253,180.995163 235.611038,179.548599 236.696426,170.447617 
	C237.184357,166.356308 235.999710,162.094894 236.061234,157.917847 
	C236.244339,145.485733 235.697235,132.929977 237.302612,120.666946 
	C238.619415,110.608154 242.319458,100.805244 245.484558,91.058258 
	C249.776199,77.842209 258.181549,67.246239 267.881897,57.527206 
	C280.538818,44.845917 295.862000,36.574432 312.705994,31.386906 
	C320.267792,29.058069 328.526947,28.894205 336.500732,28.036684 
	C342.073090,27.437418 347.698120,27.071247 353.299591,27.072201 
	C358.900818,27.073156 364.502075,27.919922 370.103119,27.917259 
	C375.732941,27.914583 381.359528,27.113903 386.992798,27.034159 
	C396.711365,26.896580 406.435364,26.959951 416.154266,27.115604 
	C420.424866,27.184002 424.692291,27.989622 428.954651,27.936642 
	C444.251038,27.746511 459.543549,27.224333 474.839996,27.064489 
	C479.909515,27.011513 485.034576,27.377216 490.030792,28.188450 
	C491.529541,28.431793 492.678650,30.828669 493.713013,32.980934 
	C493.553162,44.471561 493.668243,55.220203 493.783356,65.968849 
z"/>
<path fill="#4B4B4B" opacity="1.000000" stroke="none" 
	d="
M319.805298,95.593414 
	C323.699799,94.264717 327.237091,92.815544 330.914459,92.190285 
	C334.274750,91.618927 336.377899,93.358261 337.125854,97.034096 
	C338.805084,105.287018 340.891815,113.456062 342.698761,121.684258 
	C343.979584,127.516739 342.827728,128.931946 336.930176,128.948898 
	C324.465546,128.984726 312.000763,128.959793 298.824127,128.959793 
	C301.406830,114.539658 306.987701,103.052467 319.805298,95.593414 
z"/>
<path fill="#6F9D5A" opacity="1.000000" stroke="none" 
	d="
M492.925842,395.073059 
	C492.289032,392.849915 491.100098,390.627747 491.096130,388.403473 
	C490.992920,330.651123 491.010345,272.898560 491.013824,215.146027 
	C491.014496,204.134918 491.694641,205.064606 480.622375,204.982697 
	C467.323761,204.884323 454.025543,204.732819 440.365967,204.406158 
	C455.973114,203.836472 471.940460,203.353790 487.910828,203.213608 
	C490.299957,203.192642 493.796051,203.184433 493.757202,207.808685 
	C493.630493,208.903305 493.725372,209.444550 493.820251,209.985779 
	C493.858765,210.160004 493.897247,210.334213 493.680328,211.125671 
	C493.280304,212.891190 493.009979,214.039352 493.009247,215.187683 
	C492.988586,247.672272 492.984344,280.156891 493.032928,312.641418 
	C493.035095,314.086151 493.559570,315.530060 493.840759,316.974365 
	C493.874695,317.152344 493.908630,317.330322 493.686157,318.128723 
	C493.288239,320.728210 493.028015,322.707031 493.023407,324.686462 
	C492.968781,348.148621 492.952332,371.610840 492.925842,395.073059 
z"/>
<path fill="#7FB168" opacity="1.000000" stroke="none" 
	d="
M310.697327,262.121155 
	C309.113403,267.738190 307.432678,273.597412 305.210541,279.243561 
	C303.657867,283.188660 305.327606,284.419403 308.660675,283.944916 
	C315.127197,283.024384 321.692261,282.201569 327.925507,280.355713 
	C342.569305,276.019226 354.919342,268.276947 363.215546,254.883209 
	C367.525360,247.925262 373.226562,241.700012 376.687378,234.381531 
	C380.173401,227.009720 381.695038,218.703033 384.008392,210.785812 
	C384.829895,207.974304 385.448639,205.103577 386.669556,202.311798 
	C387.475464,202.607056 387.771698,202.850372 388.067932,203.093704 
	C386.489502,214.979355 383.608459,226.526077 377.826202,237.087570 
	C373.690430,244.641693 369.492889,252.292526 364.245819,259.065826 
	C360.148712,264.354736 354.735168,268.818665 349.308594,272.842834 
	C337.532532,281.575500 324.261536,286.595520 309.416840,286.930664 
	C308.481476,286.951782 307.568726,287.498322 306.624908,287.707977 
	C302.929626,288.528778 300.856171,286.662537 302.134766,283.036652 
	C304.609131,276.019836 307.595306,269.183502 310.697327,262.121155 
z"/>
<path fill="#7FB168" opacity="1.000000" stroke="none" 
	d="
M301.895325,359.677185 
	C300.863525,359.484100 299.133301,359.312012 298.583679,358.415863 
	C294.927856,352.455292 291.088928,346.538818 288.195435,340.203400 
	C286.326538,336.111328 285.580780,331.381134 284.995667,326.851196 
	C283.168823,312.706818 282.186676,298.355286 286.409912,284.606934 
	C289.033386,276.066498 293.919342,268.204285 297.960480,260.123016 
	C300.059937,255.924576 301.304413,250.916550 307.055878,249.316345 
	C304.832520,254.107986 302.697021,259.230347 299.546204,263.624695 
	C292.414307,273.571350 289.143463,284.907227 287.005005,296.606262 
	C284.242126,311.721283 285.542908,326.740173 291.131287,341.012848 
	C293.678131,347.517456 298.146332,353.269745 301.895325,359.677185 
z"/>
<path fill="#6F9D5A" opacity="1.000000" stroke="none" 
	d="
M240.107788,345.979218 
	C241.397171,349.293060 242.733871,352.589417 243.967621,355.923859 
	C248.851791,369.124237 255.589355,381.088043 265.584320,391.257812 
	C272.701721,398.499664 280.197876,405.168701 288.819763,410.467560 
	C301.373413,418.182770 315.040283,422.932800 329.643372,424.998413 
	C331.254059,425.226227 332.809204,425.846497 334.678986,426.503357 
	C322.946167,427.998383 311.742554,424.792786 301.239502,419.538605 
	C292.676361,415.254944 284.216461,410.472137 276.523682,404.806824 
	C263.443207,395.173798 253.030167,382.950867 246.484940,367.919250 
	C243.512619,361.093109 241.512146,353.843811 239.343262,346.392212 
	C239.615692,345.997955 240.107773,345.979218 240.107788,345.979218 
z"/>
<path fill="#7FB168" opacity="1.000000" stroke="none" 
	d="
M307.716614,249.307922 
	C305.844635,244.482895 310.745422,243.445938 312.900940,241.017578 
	C318.209869,235.036636 323.848389,229.276672 329.891785,224.049118 
	C332.966766,221.389236 337.201324,220.069901 341.351990,217.916107 
	C342.288727,224.451035 337.431427,227.129349 334.709595,230.456146 
	C327.293762,239.520309 319.989532,248.567551 314.832947,259.170105 
	C314.466675,259.923218 313.438812,260.354523 312.357849,260.979858 
	C315.204742,255.049759 318.125671,248.896423 321.707397,243.155365 
	C324.771729,238.243546 328.593658,233.804367 331.705078,228.817566 
	C321.828857,233.370193 316.087006,242.629166 307.716614,249.307922 
M333.236633,226.038773 
	C332.808594,226.677719 332.380554,227.316666 331.952515,227.955612 
	C332.133087,228.103241 332.313660,228.250870 332.494232,228.398499 
	C333.213074,227.803970 333.931946,227.209442 335.029266,226.223846 
	C335.154541,225.891525 335.279816,225.559204 335.405060,225.226883 
	C334.920044,225.465256 334.435028,225.703629 333.236633,226.038773 
z"/>
<path fill="#7AA066" opacity="1.000000" stroke="none" 
	d="
M240.090912,345.522705 
	C240.107773,345.979218 239.615692,345.997955 239.369476,345.999023 
	C238.187561,341.905121 236.522598,337.821777 236.457077,333.712891 
	C236.281769,322.720032 236.711884,311.712860 237.173065,300.722778 
	C237.212997,299.770935 239.226974,298.168213 240.377228,298.119263 
	C246.505371,297.858582 252.653091,297.886139 258.788818,298.032593 
	C263.480499,298.144501 263.136749,302.417450 263.811493,305.251190 
	C264.956635,310.060394 265.151611,315.087982 266.108887,319.952393 
	C266.768799,323.305786 270.571442,324.201385 273.595459,321.840393 
	C272.833130,322.850952 271.361755,325.011414 270.636597,324.784729 
	C268.358032,324.072418 265.216187,322.925262 264.480774,321.107971 
	C262.699799,316.706818 261.898865,311.865509 261.058624,307.138397 
	C260.034485,301.376526 258.763458,300.024994 252.980927,300.006134 
	C237.861557,299.956757 238.807144,298.784973 239.036774,313.952240 
	C239.193863,324.326416 239.715424,334.695099 240.090912,345.522705 
z"/>
<path fill="#FEFEFE" opacity="1.000000" stroke="none" 
	d="
M118.928558,327.396667 
	C118.895302,327.855225 118.478851,327.942841 118.271912,327.518036 
	C117.753571,324.710480 117.442169,322.327759 117.130768,319.945007 
	C117.104912,312.624207 117.079048,305.303375 117.454559,297.271912 
	C117.847824,262.376526 117.839714,228.191849 117.831612,194.007172 
	C117.882164,185.977753 117.932724,177.948349 117.976562,168.991669 
	C118.008690,154.445679 118.047531,140.826935 118.281837,127.172852 
	C118.477303,127.137489 118.872826,127.174713 118.872833,127.174713 
	C118.915558,153.309540 118.986755,179.444351 118.994438,205.579193 
	C119.006340,246.032150 118.974884,286.485107 118.928558,327.396667 
z"/>
<path fill="#E3E3E3" opacity="1.000000" stroke="none" 
	d="
M66.557098,125.169228 
	C66.971085,192.109085 66.966408,259.199280 66.974449,326.289459 
	C66.974770,328.949432 67.096054,331.609375 67.084412,334.747803 
	C66.672661,333.889374 66.045326,332.552704 66.044144,331.215546 
	C65.983528,262.910706 65.975975,194.605835 65.970543,126.300972 
	C65.970512,125.973846 66.081528,125.646698 66.557098,125.169228 
z"/>
<path fill="#7FB168" opacity="1.000000" stroke="none" 
	d="
M387.973694,196.022888 
	C387.658417,190.930664 387.210358,185.842300 387.061371,180.745224 
	C386.874786,174.359512 385.975677,172.960419 379.774750,174.139008 
	C369.057800,176.175934 358.486786,178.983078 347.859558,181.488342 
	C344.483643,182.284180 341.123657,183.147598 337.337189,183.973816 
	C340.323730,182.308411 343.569183,180.012131 347.164764,179.107651 
	C358.750946,176.193115 370.452332,173.725891 382.144714,171.253784 
	C384.195312,170.820190 386.416901,171.195602 388.795227,172.032410 
	C388.678467,180.585922 388.326080,188.304398 387.973694,196.022888 
z"/>
<path fill="#6A9854" opacity="1.000000" stroke="none" 
	d="
M442.814148,374.888702 
	C441.494110,375.907501 440.176514,377.810364 438.853729,377.813965 
	C414.814056,377.879364 390.773743,377.716278 366.373779,377.404236 
	C372.602905,376.798798 379.187378,376.157532 385.781647,376.032410 
	C399.102692,375.779602 412.429382,375.838013 425.753113,375.703430 
	C430.914124,375.651337 436.073364,375.424103 441.821442,375.066925 
	C442.409454,374.857208 442.814148,374.888702 442.814148,374.888702 
z"/>
<path fill="#C6E1BF" opacity="1.000000" stroke="none" 
	d="
M442.871185,374.566589 
	C442.814148,374.888702 442.409454,374.857208 442.212524,374.905212 
	C442.011322,335.279938 442.007080,295.606659 442.174438,255.558258 
	C442.534485,255.169785 442.722839,255.156433 442.911194,255.143097 
	C442.911194,255.143097 442.937805,255.073837 442.939575,255.535828 
	C442.963013,257.822083 443.000854,259.646301 443.003906,261.470581 
	C443.059692,294.984894 443.111359,328.499176 443.109131,362.467255 
	C443.088165,366.265778 443.121948,369.610504 443.155701,372.955261 
	C443.079865,373.385010 443.004059,373.814758 442.871185,374.566589 
z"/>
<path fill="#729D5C" opacity="1.000000" stroke="none" 
	d="
M442.940063,254.783478 
	C442.722839,255.156433 442.534485,255.169785 442.075317,255.100067 
	C430.042664,254.624161 418.280792,254.231339 406.288879,253.181412 
	C406.334778,251.681229 406.610748,250.838165 406.886688,249.995087 
	C409.963104,250.331955 413.039490,250.668823 416.763123,251.204163 
	C417.945374,251.584000 418.480438,251.765381 419.015472,251.946762 
	C419.758636,251.953369 420.501770,251.959961 421.952728,251.974518 
	C423.108765,251.980072 423.557007,251.977661 424.005249,251.975235 
	C429.689636,251.984482 435.373993,251.993729 441.664429,252.193268 
	C442.477844,252.624069 442.718903,252.823914 442.993713,252.983063 
	C442.985443,253.463333 442.977173,253.943588 442.940063,254.783478 
z"/>
<path fill="#7C9B6F" opacity="1.000000" stroke="none" 
	d="
M493.903381,316.510376 
	C493.559570,315.530060 493.035095,314.086151 493.032928,312.641418 
	C492.984344,280.156891 492.988586,247.672272 493.009247,215.187683 
	C493.009979,214.039352 493.280304,212.891190 493.630371,211.388580 
	C493.879211,246.038284 493.922607,281.042328 493.903381,316.510376 
z"/>
<path fill="#6F9D5A" opacity="1.000000" stroke="none" 
	d="
M464.472839,426.840179 
	C470.916290,426.188232 477.823456,425.635071 484.727356,425.044189 
	C490.661530,424.536316 491.562469,423.237061 491.571808,417.364746 
	C491.580139,412.111694 492.161285,406.859528 492.743347,401.591736 
	C493.277618,402.374207 493.558197,403.171997 493.838806,403.969788 
	C493.838776,411.374969 493.838776,418.780151 493.838776,426.922607 
	C484.031311,426.922607 474.483185,426.922607 464.472839,426.840179 
z"/>
<path fill="#7AA066" opacity="1.000000" stroke="none" 
	d="
M272.282684,296.504883 
	C273.230865,291.894562 274.251984,287.712738 274.953613,283.477966 
	C275.655212,279.243042 276.037292,274.955109 276.755188,270.356689 
	C276.959167,273.875183 277.054749,277.729614 276.959167,281.579285 
	C276.681946,292.744812 276.373505,303.910126 275.959534,315.071167 
	C275.889954,316.947510 275.233521,318.802094 274.504303,320.837341 
	C273.512085,312.975342 272.863800,304.942749 272.282684,296.504883 
z"/>
<path fill="#7AA066" opacity="1.000000" stroke="none" 
	d="
M277.447815,267.807190 
	C277.683807,264.230988 278.251129,260.532562 278.915955,256.468079 
	C280.168488,245.053299 283.934601,234.875565 289.638245,225.078598 
	C288.220764,230.354782 286.244598,235.725784 284.782776,241.233322 
	C282.638702,249.311356 280.878632,257.490967 278.902557,265.614563 
	C278.723145,266.352112 278.162659,266.997009 277.447815,267.807190 
z"/>
<path fill="#434342" opacity="1.000000" stroke="none" 
	d="
M118.086380,127.208206 
	C118.047531,140.826935 118.008690,154.445679 117.900291,168.527985 
	C117.223007,167.428329 116.108894,165.872009 116.087402,164.300735 
	C115.910416,151.366074 115.883896,138.428116 116.016327,125.493240 
	C116.025352,124.611908 117.689270,123.747528 118.867035,122.985260 
	C119.110832,123.525818 119.071136,123.956375 118.787628,124.933632 
	C118.391327,126.056290 118.238853,126.632248 118.086380,127.208206 
z"/>
<path fill="#7C9B6F" opacity="1.000000" stroke="none" 
	d="
M493.899139,403.506073 
	C493.558197,403.171997 493.277618,402.374207 492.963562,401.250275 
	C492.934509,399.251495 492.938873,397.578857 492.934540,395.489655 
	C492.952332,371.610840 492.968781,348.148621 493.023407,324.686462 
	C493.028015,322.707031 493.288239,320.728210 493.634552,318.395569 
	C493.879395,346.375488 493.919434,374.708923 493.899139,403.506073 
z"/>
<path fill="#6F9D5A" opacity="1.000000" stroke="none" 
	d="
M437.907776,203.622223 
	C434.405853,204.308395 430.693604,204.782852 426.966919,204.969666 
	C423.508698,205.143036 420.035126,205.012756 416.568298,205.010025 
	C407.312286,205.002731 407.312286,205.001419 405.805603,214.598236 
	C405.585205,215.015808 405.164459,215.027969 405.164459,215.027969 
	C404.978027,211.960800 404.358002,208.825562 404.823334,205.860687 
	C405.003876,204.710266 407.638031,203.142029 409.153687,203.142914 
	C415.747009,203.146790 422.337219,203.770859 428.934387,203.934357 
	C431.846130,204.006546 434.771759,203.518661 437.907776,203.622223 
z"/>
<path fill="#A1A1A0" opacity="1.000000" stroke="none" 
	d="
M236.394516,27.093918 
	C234.938187,27.427319 233.025497,27.956781 231.111588,27.961233 
	C208.081726,28.014830 185.051666,27.990726 161.560883,27.950462 
	C162.266754,27.609940 163.433014,27.042440 164.600143,27.040625 
	C188.379242,27.003597 212.158417,27.031290 236.394516,27.093918 
z"/>
<path fill="#7FB168" opacity="1.000000" stroke="none" 
	d="
M336.595215,183.953140 
	C333.276276,186.702698 329.657532,189.603653 325.858429,192.245270 
	C322.984833,194.243317 319.925446,195.990692 316.858704,197.686859 
	C315.542603,198.414780 313.998230,198.730072 312.253815,199.117996 
	C315.355011,196.119995 318.473633,192.765671 322.239960,190.477173 
	C326.602051,187.826645 331.533569,186.113266 336.595215,183.953140 
z"/>
<path fill="#7FB168" opacity="1.000000" stroke="none" 
	d="
M310.649658,200.003113 
	C308.181122,203.278763 305.310669,206.572617 302.545593,209.952652 
	C298.522064,214.870987 294.574371,219.851379 290.267883,224.898224 
	C291.604675,221.546860 292.632080,217.542282 295.067505,214.778381 
	C299.719574,209.498840 305.173645,204.926010 310.649658,200.003113 
z"/>
<path fill="#7F7F7F" opacity="1.000000" stroke="none" 
	d="
M194.924469,77.910812 
	C209.316589,77.949234 223.708710,77.987656 238.572464,78.014465 
	C237.387085,78.328690 235.730865,78.933685 234.072952,78.938263 
	C211.357254,79.000992 188.641312,78.980865 165.511017,78.767548 
	C165.146622,78.388634 165.196640,78.223289 165.246658,78.057945 
	C165.246658,78.057945 165.633026,78.062805 166.289337,78.050385 
	C176.271927,77.995583 185.598190,77.953201 194.924469,77.910812 
z"/>
<path fill="#2A2829" opacity="1.000000" stroke="none" 
	d="
M239.874237,377.539215 
	C237.295059,377.812378 234.570053,377.997314 231.844833,378.000427 
	C212.749390,378.022064 193.653870,378.021027 174.558472,377.979889 
	C172.589233,377.975647 170.620667,377.660339 168.791428,377.215027 
	C192.262177,376.955444 215.593262,376.970154 238.924362,376.984863 
	C239.237411,377.017334 239.505402,377.144653 239.874237,377.539215 
z"/>
<path fill="#BABABA" opacity="1.000000" stroke="none" 
	d="
M238.754669,376.584106 
	C215.593262,376.970154 192.262177,376.955444 168.462250,376.961487 
	C167.538071,376.826630 167.082733,376.670990 166.439148,376.364471 
	C190.362259,376.203522 214.473618,376.193451 238.754669,376.584106 
z"/>
<path fill="#2B2A2A" opacity="1.000000" stroke="none" 
	d="
M141.221451,423.034149 
	C141.701874,422.463806 142.548218,421.591644 143.215775,421.711884 
	C150.310928,422.990051 157.377701,424.425812 164.713623,426.144226 
	C159.310669,426.032257 153.631393,425.726807 147.989532,425.089996 
	C145.784531,424.841064 143.663589,423.847504 141.221451,423.034149 
z"/>
<path fill="#3A3A39" opacity="1.000000" stroke="none" 
	d="
M230.231873,283.349854 
	C232.947174,283.372284 235.939148,283.524933 238.896637,283.929443 
	C244.222122,284.657928 249.526978,285.537292 254.931580,286.630157 
	C251.197495,286.909149 247.311020,287.339600 243.563004,286.802948 
	C239.143753,286.170197 234.844360,284.700409 230.231873,283.349854 
z"/>
<path fill="#88B077" opacity="1.000000" stroke="none" 
	d="
M405.100586,215.491135 
	C405.164459,215.027969 405.585205,215.015808 405.795654,215.009735 
	C406.310211,226.356461 406.614349,237.709274 406.902588,249.528580 
	C406.610748,250.838165 406.334778,251.681229 406.006927,252.863419 
	C405.640747,251.866302 405.061768,250.531647 405.053864,249.193604 
	C404.988342,238.114182 405.028503,227.034149 405.100586,215.491135 
z"/>
<path fill="#7FB168" opacity="1.000000" stroke="none" 
	d="
M319.952057,372.666809 
	C312.021698,371.910370 306.555054,367.031860 302.070618,360.291138 
	C304.369629,361.863892 306.622772,363.937744 309.122742,365.651581 
	C312.585083,368.025116 316.233063,370.127869 319.952057,372.666809 
z"/>
<path fill="#2B2A2A" opacity="1.000000" stroke="none" 
	d="
M249.330139,426.836884 
	C249.802200,426.191162 250.676315,425.295135 251.675568,425.122223 
	C256.848846,424.226868 262.046051,423.453308 267.254578,422.791626 
	C268.376068,422.649170 269.578430,423.143250 270.881714,423.657166 
	C263.943207,424.953491 256.866547,425.936798 249.330139,426.836884 
z"/>
<path fill="#6F9D5A" opacity="1.000000" stroke="none" 
	d="
M442.254883,427.297302 
	C448.611938,426.754730 455.208710,426.567749 461.951721,426.662537 
	C455.563477,427.180511 449.029022,427.416687 442.254883,427.297302 
z"/>
<path fill="#A1BE98" opacity="1.000000" stroke="none" 
	d="
M387.952942,196.401917 
	C388.326080,188.304398 388.678467,180.585922 389.000732,172.392090 
	C389.312988,173.395752 389.991882,174.886093 389.942535,176.351898 
	C389.647217,185.119659 389.184235,193.881790 388.422729,202.869751 
	C387.771698,202.850372 387.475464,202.607056 386.991302,202.143005 
	C387.179657,200.208496 387.555939,198.494720 387.952942,196.401917 
z"/>
<path fill="#7A9A6E" opacity="1.000000" stroke="none" 
	d="
M493.861725,65.507416 
	C493.668243,55.220203 493.553162,44.471561 493.647644,33.368965 
	C493.884857,43.692009 493.912476,54.368999 493.861725,65.507416 
z"/>
<path fill="#3F3F3E" opacity="1.000000" stroke="none" 
	d="
M164.818710,78.042702 
	C165.196640,78.223289 165.146622,78.388634 165.043228,78.807587 
	C161.283478,80.059151 157.577087,81.057114 153.483734,82.122864 
	C153.583130,78.655670 155.940170,77.947075 159.027710,78.130280 
	C160.807098,78.235870 162.602539,78.070740 164.818710,78.042702 
z"/>
<path fill="#6F9D5A" opacity="1.000000" stroke="none" 
	d="
M416.514038,426.768250 
	C422.952087,426.491852 429.847290,426.305359 436.897339,426.425842 
	C430.358521,426.774567 423.664886,426.816345 416.514038,426.768250 
z"/>
<path fill="#6F9D5A" opacity="1.000000" stroke="none" 
	d="
M380.501465,426.800171 
	C386.438751,426.600677 392.835754,426.482147 399.595581,426.548950 
	C393.626007,426.783295 387.293610,426.832214 380.501465,426.800171 
z"/>
<path fill="#6A9854" opacity="1.000000" stroke="none" 
	d="
M361.814148,376.624817 
	C358.911041,377.131409 355.768860,377.295288 352.304077,377.222717 
	C355.179352,376.751526 358.377228,376.516785 361.814148,376.624817 
z"/>
<path fill="#6A9854" opacity="1.000000" stroke="none" 
	d="
M346.923950,376.572876 
	C343.615784,376.800079 340.125763,376.695435 336.325989,376.387146 
	C339.591522,376.202637 343.166779,376.221832 346.923950,376.572876 
z"/>
<path fill="#6F9D5A" opacity="1.000000" stroke="none" 
	d="
M342.508148,426.784210 
	C347.109741,426.592468 352.168671,426.481171 357.587708,426.554596 
	C352.953735,426.781097 347.959595,426.822876 342.508148,426.784210 
z"/>
<path fill="#6F9D5A" opacity="1.000000" stroke="none" 
	d="
M366.491455,426.804169 
	C369.442352,426.604553 372.842133,426.482391 376.591125,426.537292 
	C373.607025,426.770111 370.273682,426.825867 366.491455,426.804169 
z"/>
<path fill="#3A3A39" opacity="1.000000" stroke="none" 
	d="
M254.930573,282.650146 
	C254.712662,282.082001 254.503143,281.129150 254.572021,280.069733 
	C254.879929,280.730591 254.909439,281.498016 254.930573,282.650146 
z"/>
<path fill="#6F9D5A" opacity="1.000000" stroke="none" 
	d="
M411.391663,426.789978 
	C411.853973,426.613678 412.678101,426.505280 413.722809,426.546967 
	C413.213440,426.750671 412.483429,426.804260 411.391663,426.789978 
z"/>
<path fill="#7C9B6F" opacity="1.000000" stroke="none" 
	d="
M493.877960,209.659637 
	C493.725372,209.444550 493.630493,208.903305 493.684814,208.189972 
	C493.867859,208.456406 493.901764,208.894943 493.877960,209.659637 
z"/>
<path fill="#4B4B49" opacity="1.000000" stroke="none" 
	d="
M118.281845,127.172852 
	C118.238853,126.632248 118.391327,126.056290 118.745125,125.255249 
	C118.963318,125.508705 118.980179,125.987251 118.934937,126.820251 
	C118.872826,127.174713 118.477303,127.137489 118.281845,127.172852 
z"/>
<path fill="#6F9D5A" opacity="1.000000" stroke="none" 
	d="
M361.349091,426.805176 
	C361.557709,426.643921 362.084900,426.554138 362.784698,426.598114 
	C362.527435,426.780090 362.097534,426.828369 361.349091,426.805176 
z"/>
<path fill="#7FB168" opacity="1.000000" stroke="none" 
	d="
M324.618652,374.150757 
	C324.418671,374.295380 323.910156,374.383179 323.233398,374.340393 
	C323.480194,374.171143 323.895142,374.132507 324.618652,374.150757 
z"/>
<path fill="#7FB168" opacity="1.000000" stroke="none" 
	d="
M322.006592,373.743042 
	C321.840393,373.838654 321.593933,373.682495 321.204071,373.352661 
	C321.424622,373.059082 321.713165,373.163177 322.006592,373.743042 
z"/>
<path fill="#6F9D5A" opacity="1.000000" stroke="none" 
	d="
M403.251099,426.783264 
	C403.216980,426.504364 403.462036,426.437836 403.855164,426.613770 
	C403.965179,426.695709 403.492157,426.835052 403.251099,426.783264 
z"/>
<path fill="#6F9D5A" opacity="1.000000" stroke="none" 
	d="
M359.078857,427.209412 
	C359.015381,426.988342 359.498627,426.983521 359.740295,426.985535 
	C359.702087,427.135193 359.422180,427.282806 359.078857,427.209412 
z"/>
<path fill="#444443" opacity="1.000000" stroke="none" 
	d="
M117.487427,194.176483 
	C117.839714,228.191849 117.847824,262.376526 117.499611,296.808746 
	C116.762329,295.154144 116.053619,293.252777 116.049339,291.349792 
	C115.980446,260.726776 115.982895,230.103470 116.050369,199.480423 
	C116.054138,197.768097 116.762718,196.057312 117.487427,194.176483 
z"/>
<path fill="#3F3F3E" opacity="1.000000" stroke="none" 
	d="
M194.585907,77.689270 
	C185.598190,77.953201 176.271927,77.995583 166.478760,78.012413 
	C170.362656,77.655876 174.710251,77.115364 179.065079,77.048767 
	C184.122513,76.971428 189.186325,77.309792 194.585907,77.689270 
z"/>
<path fill="#444443" opacity="1.000000" stroke="none" 
	d="
M116.879768,320.257202 
	C117.442169,322.327759 117.753571,324.710480 118.064087,327.472351 
	C117.939911,328.450134 117.816612,329.048828 117.693314,329.647522 
	C117.338463,329.643555 116.983620,329.639587 116.628769,329.635590 
	C116.628769,326.613525 116.628769,323.591461 116.879768,320.257202 
z"/>
<path fill="#6DAF52" opacity="1.000000" stroke="none" 
	d="
M444.986847,256.988739 
	C445.656464,258.744110 446.894562,260.495117 446.908051,262.255554 
	C447.049622,280.694489 446.994751,299.134949 446.994934,317.574982 
	C446.995026,327.813843 447.105988,338.054932 446.896515,348.289490 
	C446.858551,350.145203 445.510010,351.974091 444.386719,353.441772 
	C444.004639,323.130676 443.982605,293.193115 444.042450,263.255707 
	C444.046661,261.166107 444.657898,259.077698 444.986847,256.988739 
z"/>
<path fill="#729D5C" opacity="1.000000" stroke="none" 
	d="
M444.902222,256.686768 
	C444.657898,259.077698 444.046661,261.166107 444.042450,263.255707 
	C443.982605,293.193115 444.004639,323.130676 444.013885,353.537598 
	C444.010620,356.376770 444.000397,358.746552 443.781189,361.562073 
	C443.572144,362.007782 443.163849,362.013489 443.163879,362.013489 
	C443.111359,328.499176 443.059692,294.984894 443.003906,261.470581 
	C443.000854,259.646301 442.963013,257.822083 442.902466,255.535675 
	C443.514954,255.510605 444.166290,255.947678 444.902222,256.686768 
z"/>
<path fill="#6A9854" opacity="1.000000" stroke="none" 
	d="
M443.109131,362.467255 
	C443.163849,362.013489 443.572144,362.007782 443.776062,362.006348 
	C443.842773,365.426514 443.705566,368.848145 443.362030,372.612518 
	C443.121948,369.610504 443.088165,366.265778 443.109131,362.467255 
z"/>
<path fill="#6DAF52" opacity="1.000000" stroke="none" 
	d="
M423.937561,251.724396 
	C423.557007,251.977661 423.108765,251.980072 422.324341,251.972412 
	C422.615387,251.799393 423.242615,251.636475 423.937561,251.724396 
z"/>
<path fill="#6DAF52" opacity="1.000000" stroke="none" 
	d="
M418.953217,251.697632 
	C418.480438,251.765381 417.945374,251.584000 417.204590,251.202667 
	C417.629547,251.151291 418.260254,251.299881 418.953217,251.697632 
z"/>
<path fill="#6DAF52" opacity="1.000000" stroke="none" 
	d="
M442.856445,252.791321 
	C442.718903,252.823914 442.477844,252.624069 442.131958,252.192520 
	C442.269348,252.159576 442.511261,252.358932 442.856445,252.791321 
z"/>
<path fill="#6AB34A" opacity="1.000000" stroke="none" 
	d="
M244.957428,184.079285 
	C244.556961,183.222290 244.426392,182.026077 243.760742,181.467178 
	C235.977722,174.932556 238.161560,166.261536 238.604843,157.965591 
	C238.708313,156.029495 239.140076,154.091415 239.064117,152.168350 
	C238.464844,136.994919 238.073380,121.624268 242.542252,107.102180 
	C246.119400,95.477806 251.405685,84.115387 257.659027,73.669746 
	C261.951813,66.499016 268.835236,60.683002 275.241150,55.032990 
	C280.771759,50.154999 286.935883,45.770210 293.399353,42.223206 
	C305.687805,35.479588 318.905640,30.902277 333.003876,30.110142 
	C343.409882,29.525463 353.875610,30.079700 364.311737,29.924431 
	C369.618530,29.845476 374.917389,29.070694 380.222137,29.041945 
	C400.165222,28.933855 420.109314,28.994329 440.053009,29.009382 
	C452.831146,29.019026 465.609894,29.002039 478.387024,29.129583 
	C481.358673,29.159245 484.478973,29.279297 487.233643,30.224262 
	C488.788208,30.757532 490.760590,33.033047 490.796814,34.565094 
	C491.092072,47.055557 491.083008,59.557980 490.828674,72.049881 
	C490.800659,73.424988 488.888123,75.439148 487.425629,75.955139 
	C484.990753,76.814201 482.212830,76.954605 479.578827,76.957771 
	C433.754089,77.012878 387.929291,77.015587 342.104492,76.997047 
	C320.298676,76.988220 303.787811,86.452332 293.032776,105.255104 
	C286.043915,117.473534 283.335907,130.802246 285.691711,144.945129 
	C286.096619,147.375885 285.940643,149.926331 285.824738,152.411270 
	C285.662537,155.888672 284.781525,159.407684 285.121857,162.817688 
	C285.826385,169.877075 285.724884,176.842712 285.124756,183.909241 
	C284.576843,190.361725 284.968079,196.897247 285.012482,203.395721 
	C285.048615,208.686874 281.880768,212.143723 278.504395,215.884659 
	C273.443085,209.643921 269.020508,203.443619 263.818878,197.985794 
	C258.548187,192.455505 254.029495,185.650009 245.272812,184.069519 
	C244.892563,184.078568 244.978745,184.036148 244.957428,184.079285 
z"/>
<path fill="#000000" opacity="1.000000" stroke="none" 
	d="
M334.650787,226.614914 
	C333.931946,227.209442 333.213074,227.803970 332.494232,228.398499 
	C332.313660,228.250870 332.133087,228.103241 331.952515,227.955612 
	C332.380554,227.316666 332.808594,226.677719 333.763672,226.163651 
	C334.290741,226.288528 334.650787,226.614914 334.650787,226.614914 
z"/>
<path fill="#000000" opacity="1.000000" stroke="none" 
	d="
M334.120361,226.115265 
	C334.435028,225.703629 334.920044,225.465256 335.405060,225.226883 
	C335.279816,225.559204 335.154541,225.891525 334.840027,226.419373 
	C334.650787,226.614914 334.290741,226.288528 334.120361,226.115265 
z"/>
</svg>